<svg width="8" height="900" viewBox="0 0 8 900" fill="none" xmlns="http://www.w3.org/2000/svg">
<rect y="4" width="8" height="1" fill="white" fill-opacity="0.1"/>
<rect y="13" width="8" height="1" fill="white" fill-opacity="0.1"/>
<rect y="22" width="8" height="1" fill="white" fill-opacity="0.1"/>
<rect y="31" width="8" height="1" fill="white" fill-opacity="0.1"/>
<rect y="40" width="8" height="1" fill="white" fill-opacity="0.1"/>
<rect y="49" width="8" height="1" fill="white" fill-opacity="0.1"/>
<rect y="58" width="8" height="1" fill="white" fill-opacity="0.1"/>
<rect y="67" width="8" height="1" fill="white" fill-opacity="0.1"/>
<rect y="76" width="8" height="1" fill="white" fill-opacity="0.1"/>
<rect y="85" width="8" height="1" fill="white" fill-opacity="0.1"/>
<rect y="94" width="8" height="1" fill="white" fill-opacity="0.1"/>
<rect y="103" width="8" height="1" fill="white" fill-opacity="0.1"/>
<rect y="112" width="8" height="1" fill="white" fill-opacity="0.1"/>
<rect y="121" width="8" height="1" fill="white" fill-opacity="0.1"/>
<rect y="130" width="8" height="1" fill="white" fill-opacity="0.1"/>
<rect y="139" width="8" height="1" fill="white" fill-opacity="0.1"/>
<rect y="148" width="8" height="1" fill="white" fill-opacity="0.1"/>
<rect y="157" width="8" height="1" fill="white" fill-opacity="0.1"/>
<rect y="166" width="8" height="1" fill="white" fill-opacity="0.1"/>
<rect y="175" width="8" height="1" fill="white" fill-opacity="0.1"/>
<rect y="184" width="8" height="1" fill="white" fill-opacity="0.1"/>
<rect y="193" width="8" height="1" fill="white" fill-opacity="0.1"/>
<rect y="202" width="8" height="1" fill="white" fill-opacity="0.1"/>
<rect y="211" width="8" height="1" fill="white" fill-opacity="0.1"/>
<rect y="220" width="8" height="1" fill="white" fill-opacity="0.1"/>
<rect y="229" width="8" height="1" fill="white" fill-opacity="0.1"/>
<rect y="238" width="8" height="1" fill="white" fill-opacity="0.1"/>
<rect y="247" width="8" height="1" fill="white" fill-opacity="0.1"/>
<rect y="256" width="8" height="1" fill="white" fill-opacity="0.1"/>
<rect y="265" width="8" height="1" fill="white" fill-opacity="0.1"/>
<rect y="274" width="8" height="1" fill="white" fill-opacity="0.1"/>
<rect y="283" width="8" height="1" fill="white" fill-opacity="0.1"/>
<rect y="292" width="8" height="1" fill="white" fill-opacity="0.1"/>
<rect y="301" width="8" height="1" fill="white" fill-opacity="0.1"/>
<rect y="310" width="8" height="1" fill="white" fill-opacity="0.1"/>
<rect y="319" width="8" height="1" fill="white" fill-opacity="0.1"/>
<rect y="328" width="8" height="1" fill="white" fill-opacity="0.1"/>
<rect y="337" width="8" height="1" fill="white" fill-opacity="0.1"/>
<rect y="346" width="8" height="1" fill="white" fill-opacity="0.1"/>
<rect y="355" width="8" height="1" fill="white" fill-opacity="0.1"/>
<rect y="364" width="8" height="1" fill="white" fill-opacity="0.1"/>
<rect y="373" width="8" height="1" fill="white" fill-opacity="0.1"/>
<rect y="382" width="8" height="1" fill="white" fill-opacity="0.1"/>
<rect y="391" width="8" height="1" fill="white" fill-opacity="0.1"/>
<rect y="400" width="8" height="1" fill="white" fill-opacity="0.1"/>
<rect y="409" width="8" height="1" fill="white" fill-opacity="0.1"/>
<rect y="418" width="8" height="1" fill="white" fill-opacity="0.1"/>
<rect y="427" width="8" height="1" fill="white" fill-opacity="0.1"/>
<rect y="436" width="8" height="1" fill="white" fill-opacity="0.1"/>
<rect y="445" width="8" height="1" fill="white" fill-opacity="0.1"/>
<rect y="454" width="8" height="1" fill="white" fill-opacity="0.1"/>
<rect y="463" width="8" height="1" fill="white" fill-opacity="0.1"/>
<rect y="472" width="8" height="1" fill="white" fill-opacity="0.1"/>
<rect y="481" width="8" height="1" fill="white" fill-opacity="0.1"/>
<rect y="490" width="8" height="1" fill="white" fill-opacity="0.1"/>
<rect y="499" width="8" height="1" fill="white" fill-opacity="0.1"/>
<rect y="508" width="8" height="1" fill="white" fill-opacity="0.1"/>
<rect y="517" width="8" height="1" fill="white" fill-opacity="0.1"/>
<rect y="526" width="8" height="1" fill="white" fill-opacity="0.1"/>
<rect y="535" width="8" height="1" fill="white" fill-opacity="0.1"/>
<rect y="544" width="8" height="1" fill="white" fill-opacity="0.1"/>
<rect y="553" width="8" height="1" fill="white" fill-opacity="0.1"/>
<rect y="562" width="8" height="1" fill="white" fill-opacity="0.1"/>
<rect y="571" width="8" height="1" fill="white" fill-opacity="0.1"/>
<rect y="580" width="8" height="1" fill="white" fill-opacity="0.1"/>
<rect y="589" width="8" height="1" fill="white" fill-opacity="0.1"/>
<rect y="598" width="8" height="1" fill="white" fill-opacity="0.1"/>
<rect y="607" width="8" height="1" fill="white" fill-opacity="0.1"/>
<rect y="616" width="8" height="1" fill="white" fill-opacity="0.1"/>
<rect y="625" width="8" height="1" fill="white" fill-opacity="0.1"/>
<rect y="634" width="8" height="1" fill="white" fill-opacity="0.1"/>
<rect y="643" width="8" height="1" fill="white" fill-opacity="0.1"/>
<rect y="652" width="8" height="1" fill="white" fill-opacity="0.1"/>
<rect y="661" width="8" height="1" fill="white" fill-opacity="0.1"/>
<rect y="670" width="8" height="1" fill="white" fill-opacity="0.1"/>
<rect y="679" width="8" height="1" fill="white" fill-opacity="0.1"/>
<rect y="688" width="8" height="1" fill="white" fill-opacity="0.1"/>
<rect y="697" width="8" height="1" fill="white" fill-opacity="0.1"/>
<rect y="706" width="8" height="1" fill="white" fill-opacity="0.1"/>
<rect y="715" width="8" height="1" fill="white" fill-opacity="0.1"/>
<rect y="724" width="8" height="1" fill="white" fill-opacity="0.1"/>
<rect y="733" width="8" height="1" fill="white" fill-opacity="0.1"/>
<rect y="742" width="8" height="1" fill="white" fill-opacity="0.1"/>
<rect y="751" width="8" height="1" fill="white" fill-opacity="0.1"/>
<rect y="760" width="8" height="1" fill="white" fill-opacity="0.1"/>
<rect y="769" width="8" height="1" fill="white" fill-opacity="0.1"/>
<rect y="778" width="8" height="1" fill="white" fill-opacity="0.1"/>
<rect y="787" width="8" height="1" fill="white" fill-opacity="0.1"/>
<rect y="796" width="8" height="1" fill="white" fill-opacity="0.1"/>
<rect y="805" width="8" height="1" fill="white" fill-opacity="0.1"/>
<rect y="814" width="8" height="1" fill="white" fill-opacity="0.1"/>
<rect y="823" width="8" height="1" fill="white" fill-opacity="0.1"/>
<rect y="832" width="8" height="1" fill="white" fill-opacity="0.1"/>
<rect y="841" width="8" height="1" fill="white" fill-opacity="0.1"/>
<rect y="850" width="8" height="1" fill="white" fill-opacity="0.1"/>
<rect y="859" width="8" height="1" fill="white" fill-opacity="0.1"/>
<rect y="868" width="8" height="1" fill="white" fill-opacity="0.1"/>
<rect y="877" width="8" height="1" fill="white" fill-opacity="0.1"/>
<rect y="886" width="8" height="1" fill="white" fill-opacity="0.1"/>
<rect y="895" width="8" height="1" fill="white" fill-opacity="0.1"/>
</svg>
